<svg width="515" height="595" viewBox="0 0 515 595" fill="none" xmlns="http://www.w3.org/2000/svg">
<g clip-path="url(#clip0_0_3)">
<path d="M485 0H30C13.4315 0 0 13.4315 0 30V565C0 581.569 13.4315 595 30 595H485C501.569 595 515 581.569 515 565V30C515 13.4315 501.569 0 485 0Z" fill="white"/>
<path d="M368.998 211.716H208.787V463.918H368.998V211.716Z" fill="white" stroke="black" stroke-width="6"/>
<path d="M208.787 461.998L315.071 395.199L315.269 347.153L368.57 384.987L368.998 467.508L208.839 504.508L208.787 461.998Z" fill="white" stroke="black" stroke-width="6"/>
<path d="M125.429 120.649H290.429L308.087 228.649H345.429V303.649L312.301 327.541L310.363 375.396L159.13 453.349L105.429 452.349V146.902L125.429 120.649Z" fill="white" stroke="black" stroke-width="6"/>
<path d="M307.737 221.518H264.722L270.458 298.945L153.839 339.092L89.7945 328.578V351.519L153.839 374.46V406.961L131.854 432.77L111.78 411.74L89.7945 427.034L85.0151 478.652H142.368L314.429 389.755V345.784L299.134 320.93L307.737 221.518Z" fill="black" stroke="black" stroke-width="6"/>
<path d="M133.023 110.313L262.38 90.4921L377.517 140.566L422.031 239.68L413.644 304.175L422.031 365.179L439.353 360.66L432.003 402.082L409.981 420.157H373.078L336.175 393.044L295.311 338.136L283.84 239.68L217.522 226.108L175.825 199.532H126.118L96.5111 194.753L75.6472 140.566L96.5111 153.084L133.023 110.313Z" fill="black" stroke="black" stroke-width="6"/>
</g>
<defs>
<clipPath id="clip0_0_3">
<rect width="515" height="595" fill="white"/>
</clipPath>
</defs>
</svg>
